<svg width="24" height="336" fill="none" xmlns="http://www.w3.org/2000/svg"><defs><symbol id="icon"><path fill-rule="evenodd" clip-rule="evenodd" d="M17 5C17 7.76142 14.7614 10 12 10C9.23858 10 7 7.76142 7 5C7 2.23858 9.23858 0 12 0C14.7614 0 17 2.23858 17 5ZM16 5C16 7.20914 14.2091 9 12 9C9.79086 9 8 7.20914 8 5C8 2.79086 9.79086 1 12 1C14.2091 1 16 2.79086 16 5Z" fill="var(--icon-color, currentColor)"/><path fill-rule="evenodd" clip-rule="evenodd" d="M7.58285 10.4308L4.03581 12.3826C3.39691 12.7341 3 13.4056 3 14.1348V21.0002H21V14.1348C21 13.4056 20.6031 12.7341 19.9642 12.3826L16.4172 10.4308C15.2124 11.4119 13.6749 12.0001 12 12.0001C10.3251 12.0001 8.78763 11.4119 7.58285 10.4308ZM12 13.0001C13.6667 13.0001 15.2163 12.4895 16.498 11.6167L19.4821 13.2587C19.8015 13.4345 20 13.7702 20 14.1348V20.0002H4V14.1348C4 13.7702 4.19845 13.4345 4.5179 13.2587L7.50198 11.6167C8.78375 12.4895 10.3333 13.0001 12 13.0001Z" fill="var(--icon-color, currentColor)"/></symbol></defs><view viewBox="0 0 24 24" id="light-primary"/><use x="0" y="0" href="#icon" style="--icon-color:#141414"/><view viewBox="0 24 24 24" id="light-secondary"/><use x="0" y="24" href="#icon" style="--icon-color:#707070"/><view viewBox="0 48 24 24" id="light-inverted"/><use x="0" y="48" href="#icon" style="--icon-color:#ffffff"/><view viewBox="0 72 24 24" id="light-alert"/><use x="0" y="72" href="#icon" style="--icon-color:#bf2012"/><view viewBox="0 96 24 24" id="light-action"/><use x="0" y="96" href="#icon" style="--icon-color:#1c6bba"/><view viewBox="0 120 24 24" id="light-actionSecondary"/><use x="0" y="120" href="#icon" style="--icon-color:#1c6bba"/><view viewBox="0 144 24 24" id="light-positive"/><use x="0" y="144" href="#icon" style="--icon-color:#058a22"/><view viewBox="0 168 24 24" id="dark-primary"/><use x="0" y="168" href="#icon" style="--icon-color:#ffffff"/><view viewBox="0 192 24 24" id="dark-secondary"/><use x="0" y="192" href="#icon" style="--icon-color:#a3a3a3"/><view viewBox="0 216 24 24" id="dark-inverted"/><use x="0" y="216" href="#icon" style="--icon-color:#000000"/><view viewBox="0 240 24 24" id="dark-alert"/><use x="0" y="240" href="#icon" style="--icon-color:#ea2c1a"/><view viewBox="0 264 24 24" id="dark-action"/><use x="0" y="264" href="#icon" style="--icon-color:#1f78d1"/><view viewBox="0 288 24 24" id="dark-actionSecondary"/><use x="0" y="288" href="#icon" style="--icon-color:#ffffff"/><view viewBox="0 312 24 24" id="dark-positive"/><use x="0" y="312" href="#icon" style="--icon-color:#08b42e"/></svg>