<svg width="16" height="224" fill="none" xmlns="http://www.w3.org/2000/svg"><defs><symbol id="icon"><path fill-rule="evenodd" clip-rule="evenodd" d="M11 7C11 8.65685 9.65685 10 8 10C6.34315 10 5 8.65685 5 7C5 5.34315 6.34315 4 8 4C9.65685 4 11 5.34315 11 7ZM10 7C10 8.10457 9.10457 9 8 9C6.89543 9 6 8.10457 6 7C6 5.89543 6.89543 5 8 5C9.10457 5 10 5.89543 10 7Z" fill="var(--icon-color, currentColor)"/><path fill-rule="evenodd" clip-rule="evenodd" d="M7.99996 16L12.5746 10.547C13.4622 9.53377 13.9999 8.23229 13.9999 6.79901C14.017 3.59473 11.3285 1 8.00849 1C4.68846 1 2 3.59473 2 6.79901C2 8.23229 2.53769 9.54201 3.42531 10.547L7.99996 16ZM4.18324 9.89449L4.17481 9.88495C3.44051 9.05359 3 7.9765 3 6.79901C3 4.18017 5.207 2 8.00849 2C10.8112 2 13.0139 4.18012 12.9999 6.79369L12.9999 6.79901C12.9999 7.97434 12.5608 9.04514 11.8224 9.88799L11.8154 9.89604L7.99996 14.4441L4.18324 9.89449Z" fill="var(--icon-color, currentColor)"/></symbol></defs><view viewBox="0 0 16 16" id="light-primary"/><use x="0" y="0" href="#icon" style="--icon-color:#141414"/><view viewBox="0 16 16 16" id="light-secondary"/><use x="0" y="16" href="#icon" style="--icon-color:#707070"/><view viewBox="0 32 16 16" id="light-inverted"/><use x="0" y="32" href="#icon" style="--icon-color:#ffffff"/><view viewBox="0 48 16 16" id="light-alert"/><use x="0" y="48" href="#icon" style="--icon-color:#bf2012"/><view viewBox="0 64 16 16" id="light-action"/><use x="0" y="64" href="#icon" style="--icon-color:#1c6bba"/><view viewBox="0 80 16 16" id="light-actionSecondary"/><use x="0" y="80" href="#icon" style="--icon-color:#1c6bba"/><view viewBox="0 96 16 16" id="light-positive"/><use x="0" y="96" href="#icon" style="--icon-color:#058a22"/><view viewBox="0 112 16 16" id="dark-primary"/><use x="0" y="112" href="#icon" style="--icon-color:#ffffff"/><view viewBox="0 128 16 16" id="dark-secondary"/><use x="0" y="128" href="#icon" style="--icon-color:#a3a3a3"/><view viewBox="0 144 16 16" id="dark-inverted"/><use x="0" y="144" href="#icon" style="--icon-color:#000000"/><view viewBox="0 160 16 16" id="dark-alert"/><use x="0" y="160" href="#icon" style="--icon-color:#ea2c1a"/><view viewBox="0 176 16 16" id="dark-action"/><use x="0" y="176" href="#icon" style="--icon-color:#1f78d1"/><view viewBox="0 192 16 16" id="dark-actionSecondary"/><use x="0" y="192" href="#icon" style="--icon-color:#ffffff"/><view viewBox="0 208 16 16" id="dark-positive"/><use x="0" y="208" href="#icon" style="--icon-color:#08b42e"/></svg>