<svg width="24" height="336" fill="none" xmlns="http://www.w3.org/2000/svg"><defs><symbol id="icon"><path fill-rule="evenodd" clip-rule="evenodd" d="M12.6144 21H3.99346C3.44463 21 3 20.5551 3 20.0065V3.99345C3 3.44469 3.4447 3 3.99346 3H20.0066C20.5552 3 21 3.44469 21 3.99345V20.0065C21 20.5552 20.5552 21 20.0066 21H15.4197V14.0294H17.7594L18.1098 11.3128H15.4197V9.57849C15.4197 8.79198 15.6381 8.256 16.766 8.256L18.2045 8.25537V5.82566C17.9557 5.79255 17.1018 5.71859 16.1083 5.71859C14.0343 5.71859 12.6144 6.98457 12.6144 9.30945V11.3128H10.2687V14.0294H12.6144V21Z" fill="var(--icon-color, currentColor)"/></symbol></defs><view viewBox="0 0 24 24" id="light-primary"/><use x="0" y="0" href="#icon" style="--icon-color:#141414"/><view viewBox="0 24 24 24" id="light-secondary"/><use x="0" y="24" href="#icon" style="--icon-color:#707070"/><view viewBox="0 48 24 24" id="light-inverted"/><use x="0" y="48" href="#icon" style="--icon-color:#ffffff"/><view viewBox="0 72 24 24" id="light-alert"/><use x="0" y="72" href="#icon" style="--icon-color:#bf2012"/><view viewBox="0 96 24 24" id="light-action"/><use x="0" y="96" href="#icon" style="--icon-color:#1c6bba"/><view viewBox="0 120 24 24" id="light-actionSecondary"/><use x="0" y="120" href="#icon" style="--icon-color:#1c6bba"/><view viewBox="0 144 24 24" id="light-positive"/><use x="0" y="144" href="#icon" style="--icon-color:#058a22"/><view viewBox="0 168 24 24" id="dark-primary"/><use x="0" y="168" href="#icon" style="--icon-color:#ffffff"/><view viewBox="0 192 24 24" id="dark-secondary"/><use x="0" y="192" href="#icon" style="--icon-color:#a3a3a3"/><view viewBox="0 216 24 24" id="dark-inverted"/><use x="0" y="216" href="#icon" style="--icon-color:#000000"/><view viewBox="0 240 24 24" id="dark-alert"/><use x="0" y="240" href="#icon" style="--icon-color:#ea2c1a"/><view viewBox="0 264 24 24" id="dark-action"/><use x="0" y="264" href="#icon" style="--icon-color:#1f78d1"/><view viewBox="0 288 24 24" id="dark-actionSecondary"/><use x="0" y="288" href="#icon" style="--icon-color:#ffffff"/><view viewBox="0 312 24 24" id="dark-positive"/><use x="0" y="312" href="#icon" style="--icon-color:#08b42e"/></svg>